<svg width="207" height="68" viewBox="0 0 207 68" fill="none" xmlns="http://www.w3.org/2000/svg">
<path d="M93.1416 28.7122C90.6952 25.7968 88.1079 23.248 86.1719 20.2734C83.4555 16.0984 82.0651 11.5331 84.6582 6.60702C89.0877 -1.74303 98.7386 -2.26343 103.978 5.53074L104.934 6.99141C106.629 3.49645 108.976 1.01272 113.112 0.125678C109.739 12.1836 102.74 21.2374 93.1416 28.7122Z" fill="#0D6607"/>
<path d="M96.215 38.2974C95.5873 36.1094 96.35 34.7847 98.2156 33.3536C108.406 25.5417 114.402 15.0746 116.749 2.41347C116.819 2.00543 116.913 1.6033 117.001 1.23074C117.054 1.00602 117.101 0.781305 117.154 0.5625C121.12 1.01194 124.458 5.06869 125.097 8.1497C126.347 14.1993 124.569 19.427 120.862 24.1697C114.69 32.0526 106.57 37.4281 98.0396 42.2832C97.6933 42.5001 97.3585 42.735 97.0364 42.9869C96.7782 42.8095 96.3265 42.6558 96.2913 42.437C96.2384 41.8113 96.2384 41.1821 96.2913 40.5564L96.215 38.2974Z" fill="#A30809"/>
<path d="M175.741 66.3947C173.136 66.3947 170.918 66.3947 168.701 66.3652C168.514 66.3419 168.334 66.28 168.173 66.1833C168.011 66.0866 167.871 65.9573 167.762 65.8034C164.817 61.1947 161.883 56.5761 158.962 51.9477C158.915 51.8708 158.962 51.723 159.003 51.4924C159.366 51.451 159.754 51.3978 160.147 51.3682C163.901 51.0725 166.014 48.3641 165.462 44.5971C164.981 41.4037 161.027 39.2157 158.129 40.5935C157.962 40.7304 157.827 40.9026 157.734 41.0978C157.641 41.2929 157.591 41.5064 157.589 41.723C157.559 48.6952 157.589 55.6674 157.559 62.6337C157.559 65.0701 159.361 64.4078 160.816 64.6916L160.921 66.2824H148.337V64.7685C151.54 64.2422 151.616 64.2422 151.652 60.8182C151.716 54.6207 151.652 48.3995 151.704 42.2139C151.704 40.7355 151.153 40.014 149.645 40.0968C148.571 40.15 147.885 39.807 148.39 38.4351C148.641 38.3786 148.896 38.343 149.152 38.3286C153.783 38.305 158.414 38.2872 163.045 38.2754C163.86 38.2754 164.682 38.3168 165.503 38.3582C168.032 38.4765 170.138 39.3576 170.994 41.9714C171.451 43.2025 171.53 44.5434 171.222 45.8204C170.913 47.0973 170.231 48.2514 169.264 49.1328C168.19 50.1736 166.829 50.9069 165.409 51.9182C167.439 55.0169 169.457 58.2576 171.657 61.38C172.59 62.7105 173.195 64.5201 175.23 64.7922C175.418 64.7981 175.518 65.6319 175.741 66.3947Z" fill="white"/>
<path d="M131.417 64.7269V66.2999H118.85V64.7742C122.024 64.2656 122.112 64.2715 122.159 60.9895C122.253 54.9635 122.229 48.9316 122.265 42.9056C122.265 41.1788 121.936 39.8778 119.754 40.0138C119.372 40.0138 118.938 39.2391 118.527 38.8311L118.868 38.4763C124.946 38.4763 131.03 38.3935 137.108 38.5176C139.378 38.565 140.939 40.067 141.59 42.2137C141.976 43.4044 142.016 44.6818 141.704 45.8944C141.392 47.1071 140.741 48.2042 139.83 49.0558C138.774 50.1202 137.401 50.8653 135.969 51.9002C136.404 52.5921 136.92 53.4792 137.483 54.3248C139.407 57.2225 141.296 60.1379 143.309 62.9765C143.813 63.6802 144.758 64.0527 145.403 64.6796C145.806 65.2077 146.143 65.7836 146.406 66.3945C143.661 66.3945 141.39 66.3945 139.12 66.3945C138.957 66.385 138.797 66.3411 138.652 66.2658C138.506 66.1904 138.378 66.0852 138.275 65.9569C135.371 61.226 132.496 56.436 129.516 51.504C130.103 51.4449 130.789 51.4035 131.452 51.3207C134.291 50.9718 136.145 48.5708 136.052 45.407C135.958 42.4502 134.18 40.6761 131.129 40.5224H130.601C128.079 40.4691 128.049 40.4691 128.037 42.9351C128.006 48.967 128.006 54.997 128.037 61.025C128.02 64.3603 128.061 64.3603 131.417 64.7269Z" fill="white"/>
<path d="M96.2154 38.2988L96.2682 40.5283C96.0863 41.4567 95.9103 42.3852 95.7343 43.3136C95.7343 44.2598 95.7343 45.206 95.6933 46.1462V46.8499C95.6933 50.5105 95.5877 54.1769 95.6933 57.8375C95.7989 61.0959 97.6645 63.0947 100.891 63.4909C102.398 63.6782 103.923 63.6643 105.426 63.4495C108.019 63.0651 109.991 61.1905 110.085 58.6477C110.284 53.0474 110.249 47.4117 110.255 41.8234C110.255 39.5584 108.272 40.3568 106.946 39.8541L106.823 38.3875H115.946V39.7654C113.288 40.481 113.229 40.475 113.135 43.3136C113.006 47.2107 112.983 51.1078 112.889 55.0108C112.873 56.3091 112.793 57.6058 112.648 58.896C112.477 60.7643 111.709 62.5263 110.462 63.9184C109.214 65.3106 107.552 66.2581 105.726 66.6192C102.34 67.4369 98.7976 67.304 95.4821 66.2348C91.827 65.0521 89.9144 62.456 89.8734 58.5471C89.8147 53.5797 89.8734 48.6181 89.8088 43.6507C89.756 40.3982 89.6798 40.3982 86.541 39.9014V38.2988H96.2154Z" fill="white"/>
<path d="M48.2897 40.9115C44.9573 40.9115 41.8362 40.8523 38.7737 40.9115C36.2216 40.9706 36.1571 41.0297 35.811 43.5489C35.6526 44.7317 35.2243 45.1279 34.0803 44.7317V38.4277H56.4035C56.1868 39.1747 55.8918 39.8963 55.5235 40.5803C50.5797 47.8383 45.6086 55.0786 40.61 62.3011C40.346 62.6855 40.1231 63.0994 39.7769 63.6612C40.1796 63.764 40.5895 63.8352 41.0031 63.8741C44.3413 63.8741 47.6913 63.8741 51.0295 63.744C53.8338 63.6435 53.828 63.5666 54.3971 60.7872C54.7315 59.1669 54.7315 59.1669 56.339 59.3561C56.1278 61.621 55.9107 63.8859 55.6878 66.2928H31.6338C31.9081 65.3976 32.2697 64.5319 32.7133 63.7085C37.7235 56.3461 42.8277 49.0368 47.8556 41.7157C48.0135 41.4551 48.1584 41.1867 48.2897 40.9115Z" fill="white"/>
<path d="M62.7745 44.8736L61.3313 44.7908V38.4277H83.7308C83.4275 39.2441 83.0606 40.035 82.6337 40.7932C77.9129 47.6885 73.1705 54.5739 68.4067 61.4495C67.9491 62.1178 67.5266 62.8097 66.8344 63.8978C68.3363 63.8978 69.4686 63.8978 70.6009 63.8978C73.1823 63.8623 75.7637 63.8623 78.3392 63.744C81.0145 63.6198 81.0145 63.5666 81.6246 60.8818C82.0001 59.226 82.0001 59.226 83.5724 59.2142C83.3553 61.5501 83.1383 63.8682 82.9036 66.3105H58.8496C59.095 65.4601 59.4273 64.6377 59.8411 63.8564C64.7106 56.76 69.627 49.7228 74.5082 42.656C74.8602 42.1474 75.1535 41.5856 75.4645 41.0593C71.7977 41.0593 68.2483 41.0061 64.7047 41.1184C64.1943 41.1184 63.5313 41.8813 63.2615 42.449C62.9916 43.0167 62.974 43.9097 62.7745 44.8736Z" fill="white"/>
<path d="M29.7389 64.5119V66.286H17.3247V64.7426C17.9114 64.6893 18.4453 64.6065 19.0144 64.5829C20.1232 64.5474 20.4869 64.0625 20.0704 62.9862C19.4133 61.2831 18.7973 59.5681 18.1519 57.8354C14.9428 57.8354 11.8334 57.7999 8.72983 57.8709C8.47888 57.9219 8.24277 58.0299 8.03945 58.1867C7.83612 58.3434 7.67094 58.5449 7.55647 58.7757C7.07755 59.9192 6.67191 61.0925 6.34203 62.2884C5.75535 64.2044 5.93722 64.4232 7.90261 64.6006L9.07597 64.7071V66.2978H0V64.8904C0.099736 64.8135 0.193605 64.6834 0.275741 64.6893C2.03579 64.7662 2.88061 63.8437 3.49663 62.2825C6.4535 54.7958 9.51598 47.2973 12.5081 39.8166C12.8953 38.8526 13.1534 38.0957 14.5086 38.0957C15.8639 38.0957 16.2687 38.6516 16.7556 39.7456C19.912 47.2382 23.1505 54.7012 26.3186 62.2174C26.9874 63.6899 27.533 65.1151 29.7389 64.5119ZM17.1311 55.4936L12.8601 45.1448L8.80023 55.4936H17.1311Z" fill="white"/>
<path d="M206.845 66.3509H194.584V64.8548C194.694 64.7817 194.815 64.7259 194.942 64.6892C197.828 64.4586 197.875 64.3639 196.795 61.7324C195.217 57.8767 195.217 57.8767 191.034 57.8767H185.044C184.528 59.3433 183.965 60.8335 183.501 62.3119C182.915 64.2338 183.085 64.4526 185.044 64.6419L186.218 64.7483L186.306 66.3273H177.271C177.235 65.8837 177.194 65.3929 177.165 64.9494C177.359 64.8193 177.452 64.6951 177.535 64.701C179.224 64.8252 180.016 63.8968 180.609 62.4006C183.63 54.772 186.769 47.2026 189.79 39.6094C190.195 38.5805 190.635 38.1488 191.779 38.1369C192.923 38.1251 193.404 38.5686 193.821 39.5621C197.124 47.2972 200.433 55.044 203.736 62.7968C204.147 63.7548 204.557 64.6714 205.819 64.5709C207.08 64.4704 207.156 65.2096 206.845 66.3509ZM185.977 55.4816H194.308C192.876 52.0281 191.539 48.7874 190.084 45.1801C188.646 48.7342 187.356 51.9808 185.977 55.4816Z" fill="white"/>
<path d="M95.7227 43.3146C95.8987 42.3862 96.0747 41.4577 96.2565 40.5293C96.2037 41.155 96.2037 41.7841 96.2565 42.4098C96.2917 42.6286 96.7435 42.7824 97.0016 42.9598L95.7227 43.3146Z" fill="#F0F0F0"/>
</svg>
