<svg width="88" height="130" viewBox="0 0 88 130" fill="none" xmlns="http://www.w3.org/2000/svg">
<path d="M18.9185 0L20.3902 0.117999C23.5144 0.826265 25.8084 2.49465 26.2281 5.78678L26.2268 35.8697C33.8223 39.5828 35.5812 44.7978 37.5604 52.4235C37.883 53.154 37.6561 52.5743 37.8358 54.2728V121.049C37.8358 125.472 34.0702 129.058 29.4258 129.058H8.40866C3.76559 129.058 0 125.472 0 121.049V54.2728C0.173132 52.6346 -0.0472379 53.154 0.200655 52.5913C0.71218 45.1847 5.44444 39.4097 11.609 35.8697L11.6077 5.7855C11.609 2.59043 14.8814 0 18.9185 0ZM22.5635 13.558H15.1713V38.6333L12.9639 39.975V40.076C7.94307 43.2934 4.08825 48.5411 3.67247 55.2696C3.47049 55.7824 3.65018 55.3103 3.50852 56.799V117.475C3.52295 119.191 4.05548 120.881 5.24117 122.142H32.5946C33.9521 120.987 34.1699 119.129 34.326 117.475V56.799C34.1804 55.2552 34.3653 55.7825 34.103 55.1175C32.491 48.1896 31.0574 43.4507 24.8719 40.0773L24.8706 39.9357L22.6448 38.8234L22.5635 13.558Z" fill="white"/>
<path d="M8.29688 62.8652H29.5396V110.831H8.29688V62.8652Z" fill="white"/>
<path d="M80.6885 47.8164L86.676 71.4673H86.453C87.1705 76.092 86.9869 73.9304 87.139 77.9046C86.5882 95.2414 77.58 101.667 69.6789 103.79L69.6776 120.94H77.9328C81.4846 121.084 85.1716 124.07 86.5527 129.061H49.4618C50.9007 123.986 54.4892 121.216 58.0804 120.94H64.9546V103.79C57.0469 102.249 48.1332 94.5751 47.4932 77.9046C47.6479 73.8871 47.463 76.092 48.1988 71.3387H47.9562L53.6669 47.8164H80.6885ZM83.4114 76.13H51.222C51.1932 76.8855 51.2115 76.3976 51.1709 77.5964C51.6916 91.9112 58.9513 98.502 65.3926 99.8254V99.8569H69.2395V99.8241C75.6769 98.0023 83.0127 92.4831 83.4625 77.5964C83.4219 76.4041 83.4389 76.8934 83.4114 76.13ZM78.2083 51.7578H56.1983L51.5473 71.9578H51.7454L51.6588 72.5283H82.9733L82.9039 72.0679H83.0849L78.2083 51.7578Z" fill="white"/>
</svg>
