<svg width="139" height="102" viewBox="0 0 139 102" fill="none" xmlns="http://www.w3.org/2000/svg">
<path d="M70.2615 18.2832C75.0686 18.5149 80.1086 19.4952 84.2473 22.3455C89.5611 20.2794 87.2186 20.907 91.1791 20.0757H91.1779C102.153 20.3316 110.006 32.0959 113.748 47.5292C115.698 49.0276 116.777 50.759 118.391 52.8111L134.871 52.8099L137.414 54.8735C137.769 56.5043 137.569 55.5826 138.015 57.6386L138.055 57.8219L110.572 101.852H27.8393L19.3989 88.3308H18.8222L18.8909 87.5161L0 57.2516C0.0763836 56.6418 0.152768 56.0307 0.229151 55.4209L0.429024 55.2529L0.956073 54.2115L0.999352 54.195L3.40162 52.8099H12.8172C18.0596 39.8769 29.6547 32.4116 42.1218 30.9298C45.904 31.2875 44.5176 30.9603 46.3381 31.4403C52.5978 23.1374 61.1145 19.3691 70.2628 18.2845L70.2615 18.2832ZM42.1205 36.7273C31.6636 36.9768 23.8126 43.6056 18.3257 52.8111L27.3148 52.8099C30.239 45.8068 35.0703 40.7744 41.8239 38.5771L42.743 36.8011L42.1205 36.7273ZM38.435 47.4134C36.2084 48.8341 33.8901 50.3134 32.4707 52.8111L36.8564 52.8099C37.181 50.9525 37.8646 49.1931 38.4362 47.4146L38.435 47.4134ZM51.3476 49.2008C49.5475 50.0397 48.2579 51.3497 46.8817 52.8111L50.7607 52.8099C51.1541 51.7647 51.5933 50.7399 52.0071 49.7036L51.3476 49.2008ZM80.833 46.8392C78.0844 48.484 79.509 47.4197 76.7108 50.2574C78.1608 51.1523 79.8451 51.6297 81.1411 52.8111L82.9552 52.8099C82.5351 50.6953 81.6745 48.7794 80.8342 46.8405L80.833 46.8392ZM84.3199 45.2135L84.3021 45.2212C85.0748 47.7495 85.9328 50.2447 86.5948 52.8111L88.0831 52.8099C86.2511 48.2256 87.4223 50.8048 84.3212 45.2148L84.3199 45.2135ZM89.5178 46.2574C91.9213 51.864 91.2886 49.5929 92.0728 52.8111L99.2185 52.8099L98.9232 51.6132C96.0804 49.3268 92.9793 47.2199 89.5191 46.2574H89.5178ZM101.413 44.908L102.503 47.7851C106.492 50.4776 104.554 48.8481 108.218 52.8111L111.493 52.8099L111.241 51.09C108.595 47.8042 105.094 46.2676 101.415 44.9093L101.413 44.908ZM43.8251 45.626L43.7487 45.6375C42.7405 48.3198 43.2751 46.8927 42.1459 49.92L43.3375 48.9207L44.2821 45.7215L43.8251 45.626ZM60.464 45.2988L58.2247 45.9239L57.3017 47.3459L58.7925 49.5763C61.569 48.7488 60.2069 49.1626 62.8777 48.3376C61.8313 46.843 62.5926 47.8946 60.4653 45.2988H60.464ZM74.581 42.9666L73.5192 43.0544C72.18 46.8379 72.6892 45.1486 71.8872 48.0868L72.5555 48.3236C74.166 46.3147 76.3251 45.006 78.311 43.5013L74.581 42.9666ZM69.8032 43.3943C68.6052 43.6044 67.4073 43.8743 66.2144 44.1225C67.0241 45.2186 67.8859 46.2562 68.5378 47.4758L68.8216 47.5076L69.8032 43.3943ZM91.1779 25.4696L88.8571 25.7688C96.1504 33.3919 92.7921 29.0126 98.6877 39.1283C102.612 39.8692 106.108 41.7814 109.44 44.0385C105.674 32.791 99.207 26.1787 91.1791 25.4709L91.1779 25.4696ZM94.5235 43.1053L96.3478 44.0347L96.018 43.3892L94.5235 43.1053ZM51.8887 39.29L51.0981 40.7514C53.4189 42.3237 52.6996 41.5191 53.634 42.6852L56.1725 41.7228C53.5831 39.8068 55 40.6407 51.8899 39.29H51.8887ZM83.1983 28.3544L81.5904 29.6185C79.6019 31.9941 80.4574 30.8725 78.9794 32.9387L79.8871 34.4854C82.1697 35.6439 83.887 37.9456 85.6031 39.9061L86.0207 40.0347C88.4319 39.4122 90.8456 38.9157 93.3039 38.6178C87.3129 30.7083 90.703 34.1035 83.1983 28.3557V28.3544ZM71.4785 37.2378C69.0673 37.3244 66.6753 38.0156 64.6333 39.4376C66.9146 39.0175 69.1921 38.5987 71.4976 38.3785L71.9152 37.3065L71.4785 37.2378ZM64.4614 29.3359C60.8599 29.467 57.7766 31.5892 55.2419 34.2245C56.8269 35.2302 58.3074 36.4243 59.8364 37.5293C62.6613 34.2919 66.5989 32.8852 70.5199 32.0488C66.6396 29.4912 68.6714 30.3595 64.4627 29.3359H64.4614ZM71.2697 24.2144C75.1513 27.2366 73.434 25.546 76.4727 29.2226C77.3028 28.2551 78.1748 27.3232 79.0265 26.3761C76.5186 25.1272 73.975 24.5734 71.271 24.2144H71.2697Z" fill="white"/>
<path d="M32.4913 2.69531C36.8414 2.7666 40.9788 4.02311 44.0889 6.94861C44.7344 7.55713 44.9941 8.433 45.4473 9.17392H137.395V15.5074H45.4473C43.1189 20.2839 37.7083 21.6232 32.4913 21.986L8.59473 21.9847V19.2693H27.5353V16.3336H8.59473V13.8079H27.5353V10.8735H8.59473V8.35788H27.5353V5.42348H8.59473V2.69531H32.4913Z" fill="white"/>
<path d="M14.9126 0.0859375C15.959 0.0859375 16.8069 1.65689 16.8069 3.59449V56.0688C16.8069 58.0064 15.959 59.5773 14.9126 59.5773C13.8674 59.5773 13.0195 58.0064 13.0195 56.0688V3.59449C13.0195 1.65689 13.8674 0.0859375 14.9126 0.0859375Z" fill="white"/>
<path d="M18.701 0.0878906C19.7474 0.0878906 20.5953 0.869548 20.5953 1.83325V21.5619C20.5953 22.5269 19.7474 23.3085 18.701 23.3085C17.6545 23.3085 16.8066 22.5269 16.8066 21.5619V1.83325C16.8066 0.869548 17.6545 0.0878906 18.701 0.0878906Z" fill="white"/>
<path d="M22.489 0.0878906C23.5355 0.0878906 24.3834 0.869548 24.3834 1.83325V21.5619C24.3834 22.5269 23.5355 23.3085 22.489 23.3085C21.4426 23.3085 20.5947 22.5269 20.5947 21.5619V1.83325C20.5947 0.869548 21.4426 0.0878906 22.489 0.0878906Z" fill="white"/>
</svg>
