<svg width="126" height="124" viewBox="0 0 126 124" fill="none" xmlns="http://www.w3.org/2000/svg">
<path d="M101.426 107.09L99.1091 104.502C111.498 94.1046 115.47 77.2288 115.582 61.535L113.085 62.2611C113.902 77.1464 108.405 92.6104 97.3975 102.592L65.1444 66.5818L65.1617 66.4098L64.8301 65.2733C65.0107 64.7842 64.9247 65.0183 65.0894 64.5725C65.2159 64.23 65.1675 64.3601 65.2332 64.1823C65.4948 64.019 65.7563 63.8565 66.0172 63.6932L67.0525 63.3919L67.3047 63.1881L118.387 52.1192L118.561 51.5527C118.598 51.7962 118.572 51.625 118.632 52.0657L118.671 52.0578L118.643 52.1459C121.157 72.1242 116.929 93.6032 101.426 107.089V107.09ZM99.9321 87.4242C106.945 85.9048 111.396 78.9838 109.876 71.966C108.355 64.9482 101.438 60.491 94.4251 62.0104C87.413 63.5299 82.9609 70.4509 84.4818 77.4687C86.002 84.4865 92.9193 88.9437 99.9321 87.4242Z" fill="white"/>
<path d="M103.06 72.9943C104.417 72.2703 106.026 72.6554 106.654 73.8555C107.282 75.0549 106.691 76.6141 105.334 77.3388C103.977 78.0627 102.367 77.6776 101.739 76.4783C101.111 75.2782 101.702 73.719 103.06 72.9943Z" fill="white"/>
<path d="M102.658 82.9042C102.97 82.2467 103.808 82.001 104.53 82.3558C105.252 82.7113 105.584 83.5328 105.272 84.1903C104.961 84.8485 104.122 85.0941 103.401 84.7394C102.679 84.3839 102.346 83.5624 102.658 82.9042Z" fill="white"/>
<path d="M94.082 80.8383C95.0278 80.3339 96.2199 80.7378 96.7444 81.7407C97.2697 82.7428 96.9287 83.9646 95.9829 84.4696C95.0379 84.9739 93.8457 84.5701 93.3205 83.5672C92.7959 82.5651 93.1369 81.3433 94.082 80.8383Z" fill="white"/>
<path d="M93.7143 73.675C94.2338 73.3975 94.8834 73.6085 95.1645 74.1453C95.4455 74.6821 95.2526 75.3425 94.7324 75.62C94.2129 75.8974 93.5641 75.6864 93.2823 75.1496C93.0012 74.6121 93.1949 73.9524 93.7143 73.675Z" fill="white"/>
<path d="M96.6056 66.506C98.6546 66.0616 100.616 67.0876 100.987 68.7963C101.357 70.5051 99.9956 72.2507 97.9466 72.695C95.8968 73.1394 93.9352 72.1134 93.5645 70.4047C93.1946 68.6952 94.5558 66.9503 96.6056 66.506Z" fill="white"/>
<path d="M88.7542 74.6969C90.1053 74.4043 91.4607 75.3674 91.7823 76.8486C92.103 78.3297 91.2678 79.7682 89.916 80.0609C88.5649 80.3535 87.2087 79.3904 86.8879 77.9092C86.5671 76.4281 87.4024 74.9895 88.7542 74.6969Z" fill="white"/>
<path d="M87.2857 67.1395C87.933 66.9993 88.5876 67.4812 88.7473 68.2168C88.9063 68.9523 88.5103 69.6618 87.8622 69.8027C87.2141 69.9428 86.5595 69.4602 86.4006 68.7254C86.2409 67.9899 86.6376 67.2796 87.2857 67.1395Z" fill="white"/>
<path d="M103.3 63.6727C103.949 63.5325 104.604 64.0144 104.763 64.7499C104.923 65.4847 104.526 66.195 103.877 66.3359C103.228 66.4768 102.573 65.9941 102.413 65.2593C102.254 64.5238 102.651 63.8136 103.3 63.6727Z" fill="white"/>
<path d="M42.4629 121.628L43.5178 118.3C58.825 123.599 75.4407 118.313 89.0659 110.316L87.1642 108.541C74.7124 116.922 58.5396 120.166 44.2966 115.843L58.5685 70.8092L58.5909 70.7904C58.8806 70.2623 59.2404 69.5585 59.6349 69.1344C59.8249 68.9307 60.0952 68.8208 60.3256 68.6641C61.8191 68.732 61.1074 68.6005 62.4643 69.0326L98.6356 107.874L99.2151 107.731C99.0229 107.889 99.158 107.779 98.8076 108.057L98.8343 108.086L98.744 108.108C82.754 120.575 62.0286 128.014 42.4629 121.628ZM56.0064 82.0039C56.096 82.204 56.0498 82.1007 56.1452 82.3146C56.7232 83.4345 57.4219 84.4604 58.2181 85.3556C58.2578 85.4221 58.252 85.391 58.2549 85.4409C59.6992 86.9871 59.0497 86.3643 60.1645 87.3729C60.5359 86.4322 60.9254 85.412 61.6486 84.8203C62.0518 84.6468 62.4802 84.5255 62.9166 84.5948C62.931 84.6028 62.9231 84.5977 62.9412 84.6122L62.9383 84.5955C63.7699 84.6418 64.5762 85.0305 65.2511 85.6714C66.0364 83.8954 66.3782 79.0242 66.3782 79.0242C65.7272 76.2136 63.327 80.1521 63.327 80.1521C62.7613 80.8327 63.1073 80.4432 62.2613 81.2799C62.2692 81.3818 62.275 81.3218 62.1941 81.4382L61.7584 81.6961L61.7519 81.6968C61.7266 81.738 61.7468 81.7098 61.6768 81.759C61.715 81.7517 61.1327 81.8702 61.0438 81.8644C60.8683 81.8298 60.9672 81.8514 60.7469 81.7944C60.5865 81.772 60.6609 81.7821 60.5229 81.7626C60.4673 81.7257 60.4897 81.7402 60.4564 81.7185L60.369 81.6954L60.291 81.6318C60.1378 81.5668 59.9854 81.501 59.8322 81.4367C59.7852 81.4049 59.7989 81.4237 59.7816 81.3955L59.6552 81.337C59.6378 81.3319 59.6451 81.3356 59.6328 81.3269C59.2383 81.1506 59.4102 81.2431 59.1111 81.0653C58.627 80.8992 58.1415 80.7575 57.6458 80.6737C57.2094 80.6 56.4212 80.4497 56.0628 80.8688C55.8403 81.2185 55.919 81.001 55.8959 81.5581L55.9385 81.8514L56.0064 82.0039ZM62.1876 105.621C65.6788 105.514 68.9547 103.88 71.9372 101.877C72.0861 95.3408 68.5508 89.0636 64.0502 85.7429C61.2346 84.8925 60.9672 87.089 60.9672 87.089C59.5605 91.6162 58.9941 96.0785 60.2563 100.924C60.4644 101.573 60.645 102.234 60.8813 102.869C61.6508 104.735 61.218 103.816 62.1876 105.621ZM66.1766 110.941L67.4685 112.074C69.0905 113.279 70.2364 111.461 70.2364 111.461C71.0644 108.881 71.8498 106.223 71.9018 103.372L71.7797 103.395C68.9807 105.345 66.2373 106.775 62.8985 106.728L62.8841 106.754L62.8285 106.806C64.5134 109.272 63.452 107.85 66.1766 110.941ZM66.3941 108.953L66.2351 108.588C66.0971 108.04 66.3384 107.478 66.7741 107.332C67.2098 107.186 67.6744 107.512 67.8124 108.059C67.9504 108.607 67.709 109.17 67.2734 109.316C66.7192 109.358 67.0349 109.402 66.3941 108.953ZM55.6365 97.9989C56.6871 99.1947 58.0981 99.9685 59.4789 100.726C59.7621 100.875 58.6762 97.6767 58.8199 94.6927C57.6249 94.895 54.8381 95.3379 55.1647 97.1283C55.224 97.4542 55.4797 97.7085 55.6365 97.9989Z" fill="white"/>
<path d="M17.3292 21.6113L19.6795 24.1683C7.4249 34.7243 3.66999 51.6499 3.75958 67.3437L6.24792 66.5858C5.23857 51.7128 10.5368 36.1787 21.415 26.0562L53.2151 60.6547L53.2201 60.6835C53.5315 61.1944 53.96 61.8533 54.1291 62.4031C54.2107 62.6676 54.1695 62.9544 54.1898 63.2304C53.3827 64.4833 53.8523 63.9356 52.7989 64.8893L1.07616 76.7949L0.909247 77.3636C0.869508 77.1208 0.896968 77.2913 0.831941 76.8513L0.792914 76.86L0.81966 76.7718C-1.95119 56.8268 2.00026 35.2958 17.3292 21.6113ZM20.0509 47.0547C14.3791 49.4022 13.0865 54.8731 12.9767 60.651C13.2202 67.6905 20.626 63.9732 20.626 63.9732C22.7567 61.8584 24.5492 63.07 24.5492 63.07L24.7147 63.0975C27.5195 64.1993 31.273 64.9746 34.0843 63.4949C34.8162 63.1105 35.4433 62.5383 36.0344 61.9566C36.366 61.6301 36.5611 61.1864 36.8241 60.8006L36.6637 60.8158C36.858 60.4191 37.1593 60.0607 37.2475 59.6265C37.7792 57.0081 36.1305 54.4331 34.52 52.548C34.0684 62.5498 27.7052 58.8332 27.7045 58.8332C20.5725 51.7757 27.9378 47.8798 27.9378 47.8798C25.3671 46.9897 22.7422 46.3373 20.0509 47.0547ZM36.0149 45.2297C35.3848 45.6408 35.5972 45.4587 35.3248 45.7029L34.5525 47.5056C27.659 46.6436 25.883 52.5401 25.883 52.5401C25.732 57.8672 30.0223 58.5572 30.0216 58.5572C32.9348 59.2486 33.1429 54.1708 33.1429 54.1708C33.0301 47.6985 35.0879 49.8306 35.0879 49.8306C35.3595 51.012 37.9042 50.926 37.9042 50.926C41.5183 48.6797 37.1593 47.6913 37.1593 47.6913C37.1897 47.0728 37.3898 45.6285 36.7612 45.2246C36.5502 45.0888 36.2634 45.2275 36.0149 45.2297Z" fill="white"/>
<path d="M125.55 43.2496V43.2488L122.155 43.9779C119.273 28.063 106.591 16.2419 93.0207 8.35782L92.4124 10.8866C105.741 17.5619 116.441 30.0073 119.647 44.5161L73.6992 54.3713L73.6725 54.3611C73.0735 54.3705 72.2881 54.4059 71.7289 54.273C71.4601 54.2087 71.2333 54.0281 70.9854 53.9052C70.3149 52.5744 70.5483 53.2571 70.2607 51.8656L86.237 1.25115L85.8317 0.818359C86.0607 0.907951 85.9003 0.845094 86.3122 1.01199L86.3252 0.9737L86.3873 1.04162C106.582 9.37801 118.119 23.3125 125.55 43.2488V43.2496ZM108.595 32.3078L107.766 30.6785L107.815 30.5412L107.776 30.3628C107.639 30.0542 106.918 28.0305 106.601 27.8831L106.585 27.878C105.531 25.6346 106.061 26.6404 105.036 24.8391C104.883 24.5797 104.019 23.147 103.766 22.7157C103.611 22.4866 103.4 22.457 103.153 22.5379L102.607 21.465L95.8205 26.1238C94.309 27.9149 88.5115 30.6185 88.5115 30.6185C86.0889 34.3879 81.7914 35.2983 81.7914 35.2983L78.7821 37.3126C78.6354 37.1219 78.4064 37.1783 78.2243 37.2426C78.0054 37.3726 77.9375 37.6544 78.0711 37.8719C81.1173 42.8059 79.8399 40.7323 81.9055 44.0898C81.8868 44.2105 81.8875 44.1318 81.9734 44.316L82.4135 44.915L83.4084 46.5312C83.5435 46.6772 83.4734 46.6512 83.5774 46.6772L83.7956 47.0211C85.8606 46.4835 87.9819 46.1794 90.0649 45.6982C94.8313 44.4815 93.2505 43.9822 96.5524 40.9426C99.8543 37.9022 100.748 38.1847 104.278 36.5771C106.2 35.6928 107.459 33.9992 108.595 32.3078ZM103.967 24.8464C102.679 26.7863 100.708 28.1179 98.8009 29.4054C94.1999 32.0354 94.3762 32.091 91.8365 34.0107C89.2969 35.9305 84.93 37.2736 83.641 38.2274C82.6656 38.9564 81.5118 39.3812 80.4851 40.0271L79.4996 38.4311C81.1787 37.4651 82.904 36.5995 84.6858 35.8358C86.7471 35.1256 91.1328 33.7889 93.0569 31.6749C94.9816 29.5608 99.4063 26.8752 100.852 25.9706C101.789 25.3319 102.502 24.4468 103.202 23.5711C103.487 24.0509 103.233 23.6246 103.967 24.8464ZM105.72 28.2039L105.617 28.3152C105.564 28.3773 105.292 28.6995 105.206 28.8C105.008 29.0304 104.817 29.2443 104.604 29.4712L104.528 29.6764L104.518 29.6865C104.235 30.0044 104.356 29.8678 104.154 30.0969C103.009 31.0065 101.773 31.7941 100.546 32.5874C100.344 32.7167 100.344 32.7167 100.143 32.8468C96.9158 34.9197 95.3899 36.0974 93.9484 37.887L93.9246 37.9723C93.6074 38.1363 93.2859 38.2909 92.9622 38.4434L92.3206 39.2801C91.0425 39.952 89.7593 40.6131 88.4732 41.2699C88.2991 41.3609 88.1307 41.4491 87.9675 41.5358L87.4682 41.8045C87.1785 41.6918 87.3165 41.6976 87.0556 41.7525C86.5347 41.9758 84.93 42.6672 84.6995 42.764C83.3029 43.3348 83.977 43.0603 82.6786 43.5877C82.2899 42.9562 81.9012 42.324 81.5132 41.6925C81.506 41.6817 81.4995 41.6709 81.4923 41.6593L85.5839 39.8956C90.0071 39.0344 92.3018 36.3488 92.3018 36.3488C94.1298 33.5259 97.3045 32.2608 97.3045 32.2608C100.716 31.6207 103.124 28.7992 104.533 25.8174C105.22 27.0262 104.798 26.2437 105.72 28.2039ZM101.093 33.3337L101.067 33.4024L100.671 33.6741C100.588 33.6553 100.655 33.6654 100.478 33.7319L100.653 33.6163C100.854 33.4869 100.854 33.4869 101.057 33.3576L101.093 33.3337Z" fill="white"/>
<path d="M73.8736 7.9706V7.97132L72.9242 11.201C57.8793 5.6571 41.8105 10.4344 28.7199 17.9348L30.6151 19.7151C42.5525 11.8129 58.2391 9.02114 72.2234 13.586L59.3763 57.2924L59.3554 57.3105C59.0851 57.8199 58.7506 58.4998 58.3764 58.9051C58.1965 59.1002 57.9349 59.2006 57.7145 59.3487C56.2572 59.2476 56.9537 59.3921 55.6214 58.9376L19.4501 20.0973L18.8887 20.2223C19.0722 20.0735 18.9429 20.1775 19.2781 19.9138L19.2514 19.8849L19.3388 19.8654C34.555 8.17435 54.7486 0.837202 73.8736 7.97132V7.9706ZM56.9588 20.4448C53.4293 17.122 49.5364 15.0867 44.5474 15.018C37.6437 15.6069 39.8518 22.8956 39.8518 22.8956C40.4377 24.6867 42.473 28.4373 42.473 28.4373C44.124 30.2104 43.2823 36.0555 43.2823 36.0555C42.1927 38.239 44.1247 42.28 44.1247 42.28C44.8212 43.9678 47.1932 45.2626 47.1932 45.2626C60.45 46.9352 62.2071 34.7853 62.2071 34.7853C61.817 29.5312 60.5909 24.4021 56.9588 20.4448ZM54.2999 21.5264C55.7702 23.3298 55.1604 22.4823 56.1864 24.0271C59.8806 29.9315 62.4983 36.8395 53.9054 41.3371C53.9054 41.3371 48.6578 42.72 47.91 38.7433C47.91 38.7433 46.9201 36.161 51.1649 35.7123C51.1649 35.7123 55.3772 34.1257 54.5708 30.2046C54.5708 30.2046 54.4668 24.4599 50.7928 20.8726C50.7683 20.749 50.7553 20.7505 50.9019 20.5879C51.9431 19.4319 53.555 20.8112 54.2999 21.5264ZM50.8405 23.2562C51.7957 25.0372 52.2053 26.0494 52.3383 28.1411C52.3383 28.1411 53.7414 35.0115 48.0191 34.4999C48.0191 34.4999 49.8355 28.1353 44.6175 23.6499C44.6175 23.6499 45.038 22.09 46.7352 21.6775C48.3717 21.3169 49.8138 21.999 50.8405 23.2562ZM48.8247 18.2614C49.1397 18.9991 49.4699 19.6631 49.3283 20.4954C46.7966 18.1805 44.1623 20.6746 44.1435 20.6508C41.9919 17.9825 45.2381 17.2961 45.2381 17.2954C46.5878 17.1336 47.9143 17.1205 48.8247 18.2614Z" fill="white"/>
<path d="M0.62793 78.7092L4.01726 77.952C7.0316 93.843 19.8129 105.557 33.4489 113.326L34.0356 110.793C20.651 104.23 9.84796 91.8749 6.52005 77.3928L52.3832 67.1526L52.4107 67.1627C53.0089 67.1482 53.7936 67.1063 54.3542 67.2349C54.6237 67.2964 54.8521 67.4755 55.1013 67.5962C55.7826 68.9213 55.5435 68.2407 55.8426 69.6301L40.2919 120.376L40.7001 120.805C40.4704 120.718 40.6315 120.779 40.2182 120.616L40.2066 120.654L40.1431 120.587C21.1785 112.932 5.2896 98.9079 0.62793 78.7092ZM17.7147 91.5534C22.7752 94.7874 28.4058 97.5915 34.553 97.7634C35.6447 97.5271 36.7407 97.3017 37.8173 97.0098C38.6612 96.6262 39.461 96.1544 40.2969 95.7563C42.3453 93.4261 44.028 90.7911 45.1653 87.9155L44.9052 87.5759C42.3077 89.8237 43.8987 88.6886 39.9212 90.6719C38.4712 92.4703 36.5435 93.7809 34.3225 94.5114C34.1787 94.6371 34.2625 94.5648 34.0696 94.7281L33.9179 94.6812L34.3225 94.5121C35.4626 93.5136 36.6222 92.5259 37.6135 91.3785C33.9208 92.0888 31.4815 92.5512 27.7895 90.8988C33.2799 90.9638 39.5008 90.3547 43.3857 86.0832C35.5067 78.8848 24.0859 86.2118 17.7147 91.5534ZM33.2011 75.6725C33.3153 77.9397 33.6946 80.28 34.5775 82.4381C38.8555 81.4851 42.6487 82.9215 45.1934 86.9582C47.3176 79.8046 38.6626 76.5099 33.2011 75.6725Z" fill="white"/>
</svg>
